{"title":"Out.of.the.Furnace.2013.BRRip.720p.x264.AAC-PRiSTiNE [P2PDL]","uid":9673399,"size":727931891,"categoryP":"video","categoryS":"hd___movies","magnet":"?xt=urn:btih:e73166062b32cd3b4b4c4e08035487ac0518866b&amp;dn=Out.of.the.Furnace.2013.BRRip.720p.x264.AAC-PRiSTiNE+%5BP2PDL%5D&amp;tr=udp%3A%2F%2Ftracker.openbittorrent.com%3A80&amp;tr=udp%3A%2F%2Fopen.demonii.com%3A1337&amp;tr=udp%3A%2F%2Ftracker.coppersurfer.tk%3A6969&amp;tr=udp%3A%2F%2Fexodus.desync.com%3A6969","seeders":1,"leechers":0,"uploader":"ValidusVyto","files":-1,"time":1393513766,"description":"Out.of.the.Furnace.2013.BRRip.720p.x264.AAC-PRiSTiNE\n\n\nGenre: Crime | Drama | Thriller  &lt;a href=&quot;\nhttp://www.imdb.com/title/tt1206543/&quot; rel=&quot;nofollow&quot; target=&quot;_NEW&quot;&gt;\nhttp://www.imdb.com/title/tt1206543/&lt;/a&gt;\n\n\nGeneral\nFormat                                   : MPEG-4\nFile size                                : 685 MiB\nDuration                                 : 1h 56mn\nOverall bit rate mode                    : Variable\nOverall bit rate                         : 825 Kbps\n\nVideo\nFormat                                   : AVC\nFormat profile                           : &lt;a class=&quot;__cf_email__&quot; href=&quot;/cdn-cgi/l/email-protection&quot; data-cfemail=&quot;bff7d6d8d7fff38b918e&quot;&gt;[email&amp;#160;protected]&lt;/a&gt;&lt;script cf-hash='f9e31' type=&quot;text/javascript&quot;&gt;\n/* &lt;![CDATA[ */!function(){try{var t=&quot;currentScript&quot;in document?document.currentScript:function(){for(var t=document.getElementsByTagName(&quot;script&quot;),e=t.length;e--;)if(t[e].getAttribute(&quot;cf-hash&quot;))return t[e]}();if(t&amp;&amp;t.previousSibling){var e,r,n,i,c=t.previousSibling,a=c.getAttribute(&quot;data-cfemail&quot;);if(a){for(e=&quot;&quot;,r=parseInt(a.substr(0,2),16),n=2;a.length-n;n+=2)i=parseInt(a.substr(n,2),16)^r,e+=String.fromCharCode(i);e=document.createTextNode(e),c.parentNode.replaceChild(e,c)}}}catch(u){}}();/* ]]&gt; */&lt;/script&gt;\nBit rate                                 : 740 Kbps\nWidth                                    : 1 280 pixels\nHeight                                   : 528 pixels\nDisplay aspect ratio                     : 2.40:1\nFrame rate mode                          : Variable\nFrame rate                               : 23.976 fps\nChroma subsampling                       : 4:2:0\nBit depth                                : 8 bits\nStream size                              : 614 MiB (90%)\nWriting library                          : x264 core 142 r2389 956c8d8\n\nAudio\nFormat                                   : AAC\nBit rate                                 : 80.0 Kbps\nChannel(s)                               : 2 channels\nChannel positions                        : Front: L R\nSampling rate                            : 48.0 KHz\nStream size                              : 66.5 MiB (10%)\nLanguage                                 : English\n\nSubtitle                                 : Yes (English)\n &lt;a href=&quot;\nhttp://someimage.com/VtiLMAL&quot; rel=&quot;nofollow&quot; target=&quot;_NEW&quot;&gt;\nhttp://someimage.com/VtiLMAL&lt;/a&gt; &lt;a href=&quot;\nhttp://someimage.com/HtdIsxH&quot; rel=&quot;nofollow&quot; target=&quot;_NEW&quot;&gt;\nhttp://someimage.com/HtdIsxH&lt;/a&gt; &lt;a href=&quot;\nhttp://someimage.com/TCStmbB&quot; rel=&quot;nofollow&quot; target=&quot;_NEW&quot;&gt;\nhttp://someimage.com/TCStmbB&lt;/a&gt; &lt;a href=&quot;\nhttp://someimage.com/LWFE3rx&quot; rel=&quot;nofollow&quot; target=&quot;_NEW&quot;&gt;\nhttp://someimage.com/LWFE3rx&lt;/a&gt; &lt;a href=&quot;\nhttp://someimage.com/z1qTzcX&quot; rel=&quot;nofollow&quot; target=&quot;_NEW&quot;&gt;\nhttp://someimage.com/z1qTzcX&lt;/a&gt; &lt;a href=&quot;\nhttp://someimage.com/1orGZb2&quot; rel=&quot;nofollow&quot; target=&quot;_NEW&quot;&gt;\nhttp://someimage.com/1orGZb2&lt;/a&gt;\n\n\nFind us at P2PDL torrent community :P","torrent":{"xt":"urn:btih:e73166062b32cd3b4b4c4e08035487ac0518866b","amp;dn":"Out.of.the.Furnace.2013.BRRip.720p.x264.AAC-PRiSTiNE+%5BP2PDL%5D","amp;tr":["udp%3A%2F%2Ftracker.openbittorrent.com%3A80","udp%3A%2F%2Fopen.demonii.com%3A1337","udp%3A%2F%2Ftracker.coppersurfer.tk%3A6969","udp%3A%2F%2Fexodus.desync.com%3A6969"],"infoHash":"e73166062b32cd3b4b4c4e08035487ac0518866b","infoHashBuffer":{"type":"Buffer","data":[231,49,102,6,43,50,205,59,75,76,78,8,3,84,135,172,5,24,134,107]},"announce":[],"urlList":[]}}